<svg width="14" height="14" viewBox="0 0 14 14" fill="none" xmlns="http://www.w3.org/2000/svg">
<path d="M6.45447 2.7273C6.73061 2.7273 6.95447 2.50344 6.95447 2.2273C6.95447 1.95115 6.73061 1.7273 6.45447 1.7273V2.7273ZM12.4089 7.61365C12.4089 7.33751 12.1851 7.11365 11.9089 7.11365C11.6328 7.11365 11.4089 7.33751 11.4089 7.61365H12.4089ZM10.4894 1L10.8407 0.644232C10.646 0.451923 10.3328 0.451923 10.1381 0.644232L10.4894 1ZM13 3.47925L13.3513 3.83502C13.4465 3.74108 13.5 3.61295 13.5 3.47925C13.5 3.34555 13.4465 3.21743 13.3513 3.12348L13 3.47925ZM7.85748 8.55755L7.86337 9.05752C7.99284 9.05599 8.11667 9.0043 8.2088 8.91332L7.85748 8.55755ZM5.34687 6.0783L4.99555 5.72253C4.90191 5.815 4.8485 5.94066 4.84691 6.07226L5.34687 6.0783ZM5.31654 8.5875L4.81658 8.58146C4.81495 8.71613 4.86772 8.84576 4.96294 8.941C5.05815 9.03625 5.18777 9.08905 5.32243 9.08747L5.31654 8.5875ZM10.0908 12.5H2.81816V13.5H10.0908V12.5ZM1.5 11.2045V4.02275H0.5V11.2045H1.5ZM2.81816 2.7273H6.45447V1.7273H2.81816V2.7273ZM11.4089 7.61365V11.2045H12.4089V7.61365H11.4089ZM2.81816 12.5C2.08422 12.5 1.5 11.9141 1.5 11.2045H0.5C0.5 12.4782 1.54382 13.5 2.81816 13.5V12.5ZM10.0908 13.5C11.3651 13.5 12.4089 12.4782 12.4089 11.2045H11.4089C11.4089 11.9141 10.8247 12.5 10.0908 12.5V13.5ZM1.5 4.02275C1.5 3.3132 2.08422 2.7273 2.81816 2.7273V1.7273C1.54382 1.7273 0.5 2.7491 0.5 4.02275H1.5ZM10.1381 1.35577L12.6487 3.83502L13.3513 3.12348L10.8407 0.644232L10.1381 1.35577ZM12.6487 3.12348L7.50615 8.20178L8.2088 8.91332L13.3513 3.83502L12.6487 3.12348ZM5.69819 6.43407L10.8407 1.35577L10.1381 0.644232L4.99555 5.72253L5.69819 6.43407ZM7.85158 8.05759L5.31065 8.08754L5.32243 9.08747L7.86337 9.05752L7.85158 8.05759ZM5.81651 8.59354L5.84683 6.08434L4.84691 6.07226L4.81658 8.58146L5.81651 8.59354Z" fill="#A2A2A2"/>
</svg>
